<svg xmlns="http://www.w3.org/2000/svg" width="48" height="48" viewBox="0 0 48 48" role="img" aria-labelledby="title desc" shape-rendering="crispEdges">
  <title id="title">Delegate</title>
  <desc id="desc">One bounded source branching into three owned lanes.</desc>
  <g transform="scale(1.5)">
  <rect x="26" y="2" width="2" height="2" fill="#315EFB"/>
  <rect x="12" y="6" width="6" height="2" fill="#151922"/>
  <rect x="12" y="8" width="2" height="2" fill="#151922"/>
  <rect x="16" y="8" width="2" height="2" fill="#151922"/>
  <rect x="12" y="10" width="6" height="2" fill="#151922"/>
  <rect x="14" y="12" width="2" height="2" fill="#151922"/>
  <rect x="14" y="14" width="2" height="2" fill="#151922"/>
  <rect x="6" y="16" width="18" height="2" fill="#151922"/>
  <rect x="6" y="18" width="2" height="2" fill="#151922"/>
  <rect x="14" y="18" width="2" height="2" fill="#151922"/>
  <rect x="22" y="18" width="2" height="2" fill="#151922"/>
  <rect x="4" y="20" width="6" height="2" fill="#151922"/>
  <rect x="12" y="20" width="6" height="2" fill="#151922"/>
  <rect x="20" y="20" width="6" height="2" fill="#151922"/>
  <rect x="4" y="22" width="2" height="2" fill="#151922"/>
  <rect x="8" y="22" width="2" height="2" fill="#151922"/>
  <rect x="12" y="22" width="2" height="2" fill="#151922"/>
  <rect x="16" y="22" width="2" height="2" fill="#151922"/>
  <rect x="20" y="22" width="2" height="2" fill="#151922"/>
  <rect x="24" y="22" width="2" height="2" fill="#151922"/>
  <rect x="4" y="24" width="6" height="2" fill="#151922"/>
  <rect x="12" y="24" width="6" height="2" fill="#151922"/>
  <rect x="20" y="24" width="6" height="2" fill="#151922"/>
  </g>
</svg>
